<?xml version="1.0" encoding="UTF-8"?>
<svg width="94px" height="94px" viewBox="0 0 94 94" version="1.1" xmlns="http://www.w3.org/2000/svg" xmlns:xlink="http://www.w3.org/1999/xlink">
    <!-- Generator: Sketch 60.1 (88133) - https://sketch.com -->
    <title>Group 5</title>
    <desc>Created with Sketch.</desc>
    <defs>
        <filter x="-45.3%" y="-45.3%" width="190.5%" height="190.5%" filterUnits="objectBoundingBox" id="filter-1">
            <feOffset dx="0" dy="7" in="SourceAlpha" result="shadowOffsetOuter1"></feOffset>
            <feGaussianBlur stdDeviation="5" in="shadowOffsetOuter1" result="shadowBlurOuter1"></feGaussianBlur>
            <feColorMatrix values="0 0 0 0 0.839902054   0 0 0 0 0.870640851   0 0 0 0 0.799519713  0 0 0 1 0" type="matrix" in="shadowBlurOuter1" result="shadowMatrixOuter1"></feColorMatrix>
            <feMerge>
                <feMergeNode in="shadowMatrixOuter1"></feMergeNode>
                <feMergeNode in="SourceGraphic"></feMergeNode>
            </feMerge>
        </filter>
    </defs>
    <g id="Page-1" stroke="none" stroke-width="1" fill="none" fill-rule="evenodd">
        <g id="Group-5" transform="translate(10.000000, 3.000000)" fill-rule="nonzero">
            <g id="tag-3-2" fill="#538610">
                <g id="tag-3" filter="url(#filter-1)">
                    <path d="M71.5070728,0 L44.2832524,0 C43.6269212,0 42.9975626,0.26102431 42.5335194,0.725212542 L0.726517663,42.5322143 C-0.240577406,43.4981493 -0.241447487,45.0651652 0.724632488,46.0322603 L27.9503381,73.2579659 C28.9168531,74.2240459 30.483434,74.2240459 31.449804,73.2579659 L73.2568058,31.4509641 C73.7215741,30.9863409 73.9820189,30.3559672 73.9820189,29.698766 L73.9820189,2.4749455 C73.9820189,1.1080482 72.8739701,0 71.5070728,0 Z M56.6576898,22.2740745 C53.9240403,22.2740745 51.7079439,20.0579781 51.7079439,17.3243285 C51.7079439,14.5906789 53.9240403,12.3745825 56.6576898,12.3745825 C59.3913394,12.3745825 61.6074358,14.5906789 61.6074358,17.3243285 C61.6074358,20.0579781 59.3913394,22.2740745 56.6576898,22.2740745 Z" id="Shape"></path>
                </g>
            </g>
            <path d="M25.402,47 L25.402,31.6 L23.312,31.6 C23.18,33.096 21.97,34.944 20.32,35.802 L20.32,37.144 C21.244,37.056 22.718,36.242 23.312,35.626 L23.312,47 L25.402,47 Z M33.432,47.154 C36.512,47.154 38.162,43.678 38.162,39.322 C38.162,34.944 36.534,31.468 33.432,31.468 C30.308,31.468 28.702,34.944 28.702,39.322 C28.702,43.678 30.352,47.154 33.432,47.154 Z M33.432,45.064 C31.386,45.064 30.792,42.006 30.792,39.322 C30.792,36.616 31.364,33.558 33.432,33.558 C35.5,33.558 36.05,36.616 36.05,39.322 C36.05,42.006 35.478,45.064 33.432,45.064 Z M44.168,47 L44.168,44.448 L49.008,44.448 L49.008,42.6 L44.168,42.6 L44.168,41.456 L47.842,41.456 C50.944,41.456 52.88,39.234 52.88,36.506 C52.88,33.756 50.988,31.6 47.842,31.6 L42.078,31.6 L42.078,39.366 L40.142,39.366 L40.142,41.456 L42.078,41.456 L42.078,42.6 L40.142,42.6 L40.142,44.448 L42.078,44.448 L42.078,47 L44.168,47 Z M47.842,39.366 L44.168,39.366 L44.168,33.69 L47.842,33.69 C49.712,33.69 50.702,34.988 50.702,36.506 C50.702,38.002 49.69,39.366 47.842,39.366 Z" id="10₽" fill="#FFFFFF" transform="translate(36.600000, 39.311000) rotate(-45.000000) translate(-36.600000, -39.311000) "></path>
        </g>
    </g>
</svg>